<?xml version="1.0" standalone="no"?><!DOCTYPE svg PUBLIC "-//W3C//DTD SVG 1.1//EN" "http://www.w3.org/Graphics/SVG/1.1/DTD/svg11.dtd"><svg t="1561043107794" class="icon" viewBox="0 0 1024 1024" version="1.1" xmlns="http://www.w3.org/2000/svg" p-id="1010" xmlns:xlink="http://www.w3.org/1999/xlink" width="200" height="200"><defs><style type="text/css"></style></defs><path d="M756.8 976H475.2c-86.4 0-155.2-70.4-155.2-155.2v-46.4c0-86.4 70.4-155.2 155.2-155.2h281.6c86.4 0 155.2 70.4 155.2 155.2v46.4c0 84.8-70.4 155.2-155.2 155.2z" fill="#96E8BA" p-id="1011"></path><path d="M838.4 451.2H147.2c-20.8 0-36.8-11.2-44.8-30.4s-3.2-38.4 11.2-52.8l124.8-110.4c6.4-6.4 17.6-4.8 24 1.6 6.4 6.4 4.8 17.6-1.6 24l-124.8 110.4c-6.4 6.4-3.2 14.4-3.2 16s4.8 9.6 14.4 9.6h692.8c9.6 0 14.4-8 14.4-9.6 1.6-1.6 3.2-9.6-3.2-17.6l-345.6-304c-8-8-17.6-6.4-24 0l-107.2 94.4c-6.4 6.4-17.6 4.8-24-1.6-6.4-6.4-4.8-17.6 1.6-24l105.6-94.4c9.6-9.6 22.4-14.4 35.2-14.4 12.8 0 25.6 4.8 35.2 14.4l345.6 304c14.4 14.4 19.2 35.2 11.2 54.4-8 17.6-25.6 30.4-46.4 30.4z" fill="#103E26" p-id="1012"></path><path d="M283.2 254.4c-4.8 0-9.6-1.6-12.8-4.8-6.4-6.4-4.8-17.6 1.6-24l43.2-38.4c6.4-6.4 17.6-4.8 24 1.6 6.4 6.4 4.8 17.6-1.6 24l-43.2 38.4c-3.2 1.6-6.4 3.2-11.2 3.2zM812.8 896h-224c-9.6 0-16-8-16-16V704h-158.4v176c0 9.6-8 16-16 16h-224c-9.6 0-16-8-16-16V480c0-9.6 8-16 16-16s16 8 16 16v384h190.4V688c0-9.6 8-16 16-16h192c9.6 0 16 8 16 16v176h190.4V480c0-9.6 8-16 16-16s16 8 16 16v400c1.6 9.6-4.8 16-14.4 16z" fill="#103E26" p-id="1013"></path><path d="M592 592H400c-9.6 0-16-8-16-16s8-16 16-16h192c9.6 0 16 8 16 16s-6.4 16-16 16zM473.6 267.2c-4.8 0-11.2-3.2-12.8-8-4.8-8-1.6-17.6 4.8-20.8l54.4-32-54.4-38.4c-6.4-4.8-8-14.4-3.2-22.4 4.8-6.4 14.4-8 22.4-3.2l75.2 52.8c4.8 3.2 6.4 8 6.4 12.8s-3.2 9.6-8 12.8l-75.2 44.8c-3.2 1.6-6.4 1.6-9.6 1.6z" fill="#103E26" p-id="1014"></path></svg>