<?xml version="1.0" standalone="no"?><!DOCTYPE svg PUBLIC "-//W3C//DTD SVG 1.1//EN" "http://www.w3.org/Graphics/SVG/1.1/DTD/svg11.dtd"><svg t="1561043120048" class="icon" viewBox="0 0 1024 1024" version="1.1" xmlns="http://www.w3.org/2000/svg" p-id="1146" xmlns:xlink="http://www.w3.org/1999/xlink" width="200" height="200"><defs><style type="text/css"></style></defs><path d="M716.8 848C587.2 848 480 740.8 480 611.2c0-129.6 107.2-236.8 236.8-236.8 129.6 0 236.8 107.2 236.8 236.8C955.2 740.8 848 848 716.8 848z" fill="#96E8BA" p-id="1147"></path><path d="M896 254.4H304c-12.8 0-22.4-9.6-22.4-22.4s9.6-22.4 22.4-22.4h592c12.8 0 22.4 9.6 22.4 22.4s-9.6 22.4-22.4 22.4zM768 520H304c-12.8 0-22.4-9.6-22.4-22.4s9.6-22.4 22.4-22.4h464c12.8 0 22.4 9.6 22.4 22.4s-9.6 22.4-22.4 22.4zM640 776H304c-12.8 0-22.4-9.6-22.4-22.4s9.6-22.4 22.4-22.4h336c12.8 0 22.4 9.6 22.4 22.4s-9.6 22.4-22.4 22.4zM155.2 321.6c-19.2 0-36.8-6.4-51.2-17.6-35.2-28.8-40-80-12.8-115.2 14.4-17.6 33.6-27.2 54.4-30.4 22.4-1.6 43.2 3.2 59.2 17.6 35.2 28.8 40 80 12.8 115.2-14.4 17.6-33.6 27.2-54.4 30.4h-8z m0-118.4h-4.8c-9.6 1.6-19.2 6.4-24 12.8-12.8 16-9.6 38.4 4.8 51.2 8 6.4 17.6 9.6 27.2 8 9.6-1.6 19.2-6.4 24-12.8 12.8-16 9.6-38.4-4.8-51.2-6.4-4.8-14.4-8-22.4-8zM155.2 833.6c-19.2 0-36.8-6.4-51.2-17.6-17.6-14.4-27.2-33.6-30.4-54.4-1.6-22.4 3.2-43.2 17.6-59.2 28.8-35.2 80-40 115.2-12.8 35.2 28.8 40 80 12.8 115.2-14.4 17.6-33.6 27.2-54.4 30.4-3.2-1.6-6.4-1.6-9.6-1.6z m0-118.4c-11.2 0-20.8 4.8-28.8 14.4-6.4 8-9.6 17.6-8 27.2 1.6 9.6 6.4 19.2 12.8 24s17.6 9.6 27.2 8c9.6-1.6 19.2-6.4 24-12.8 12.8-16 9.6-38.4-4.8-51.2-6.4-8-14.4-9.6-22.4-9.6zM155.2 577.6c-19.2 0-36.8-6.4-51.2-17.6-17.6-14.4-27.2-33.6-30.4-54.4-1.6-22.4 3.2-43.2 17.6-59.2 14.4-17.6 33.6-27.2 54.4-30.4 22.4-1.6 43.2 3.2 59.2 17.6 35.2 28.8 40 80 12.8 115.2-14.4 17.6-33.6 27.2-54.4 30.4-1.6-1.6-4.8-1.6-8-1.6z m0-118.4h-4.8c-9.6 1.6-19.2 6.4-24 12.8-6.4 8-9.6 17.6-8 27.2 1.6 9.6 6.4 19.2 12.8 24 8 6.4 17.6 9.6 27.2 8 9.6-1.6 19.2-6.4 24-12.8 12.8-16 9.6-38.4-4.8-51.2-6.4-4.8-14.4-8-22.4-8z" fill="#103E26" p-id="1148"></path></svg>